<svg width="209" height="41" viewBox="0 0 209 41" fill="none" xmlns="http://www.w3.org/2000/svg">
<path d="M31.2873 17.9937C30.1076 19.1806 29.5181 20.8314 29.6791 22.497L29.6514 22.4694C29.8168 24.4295 29.1098 26.3629 27.7188 27.7539C26.3279 29.1449 24.3944 29.8519 22.4343 29.6865L22.4619 29.7142C20.0886 29.4933 17.8316 30.7842 16.8188 32.9419C15.806 35.0995 16.2548 37.6606 17.941 39.3453C19.6272 41.03 22.1887 41.4765 24.3454 40.4617C26.5022 39.4469 27.7911 37.1887 27.568 34.8156L27.5973 34.8433C27.4318 32.8832 28.1388 30.9497 29.5298 29.5588C30.9208 28.1678 32.8542 27.4607 34.8144 27.6262L34.7852 27.5985C37.3935 27.8331 39.8206 26.2427 40.6467 23.7575C41.4729 21.2724 40.4811 18.5454 38.2515 17.1717C36.0219 15.7979 33.1401 16.1383 31.2919 17.9937H31.2873Z" fill="#5454D4"/>
<path d="M19.9453 26.0887L19.9161 26.061C21.5828 26.2289 23.2369 25.6396 24.4218 24.4555C25.6068 23.2714 26.1974 21.6178 26.0308 19.9509L26.06 19.9786C25.8945 18.0184 26.6016 16.085 27.9925 14.694C29.3835 13.3031 31.3169 12.596 33.2771 12.7615L33.2479 12.7338C35.6214 12.9567 37.8798 11.6672 38.8941 9.50979C39.9085 7.35242 39.461 4.7906 37.7753 3.1049C36.0896 1.41919 33.5278 0.971676 31.3704 1.98605C29.213 3.00043 27.9235 5.2588 28.1464 7.63231L28.1187 7.6031C28.2847 9.5634 27.5779 11.4971 26.1868 12.8882C24.7957 14.2794 22.8619 14.9862 20.9016 14.8202L20.9293 14.8494C19.2625 14.6815 17.6085 15.2709 16.4235 16.4549C15.2385 17.639 14.6479 19.2927 14.8146 20.9595L14.7869 20.9318C14.9518 22.8919 14.2446 24.825 12.8537 26.2158C11.4629 27.6066 9.52981 28.3139 7.56979 28.149L7.59746 28.1766C5.22395 27.9537 2.96558 29.2433 1.9512 31.4006C0.936825 33.558 1.38434 36.1198 3.07004 37.8055C4.75575 39.4912 7.31756 39.9387 9.47494 38.9244C11.6323 37.91 12.9218 35.6516 12.6989 33.2781L12.7282 33.3058C12.5627 31.3456 13.2697 29.4122 14.6607 28.0212C16.0517 26.6303 17.9851 25.9232 19.9453 26.0887Z" fill="#FF7143"/>
<path d="M9.64065 23.0029C10.8205 21.8162 11.4096 20.1651 11.2474 18.4995L11.2766 18.5272C11.111 16.5665 11.8184 14.6325 13.2101 13.2414C14.6018 11.8503 16.5361 11.1437 18.4968 11.3101L18.4675 11.2824C20.8402 11.5047 23.0975 10.2153 24.1113 8.05859C25.125 5.90191 24.6775 3.3411 22.9925 1.65602C21.3074 -0.0290645 18.7466 -0.476549 16.5899 0.537209C14.4332 1.55097 13.1438 3.80826 13.3661 6.18094L13.3384 6.15326C13.5038 8.11342 12.7968 10.0468 11.4058 11.4378C10.0149 12.8288 8.08143 13.5358 6.12127 13.3704L6.14895 13.398C3.54071 13.1641 1.11414 14.755 0.288473 17.2401C-0.537198 19.7252 0.454911 22.4519 2.68454 23.8253C4.91418 25.1988 7.79567 24.8583 9.64373 23.0029H9.64065Z" fill="#5454D4"/>
<path d="M57.2686 7.66772H61.835V29.8895H57.2686V7.66772Z" fill="#19191B"/>
<path fill-rule="evenodd" clip-rule="evenodd" d="M69.3788 14.804C66.3653 16.0629 64.408 19.0144 64.4211 22.2803C64.4053 24.4217 65.2512 26.4796 66.7685 27.9908C68.2858 29.5021 70.3471 30.3397 72.4885 30.3153C75.7543 30.3153 78.698 28.3462 79.9448 25.3277C81.1915 22.3092 80.4954 18.8368 78.1814 16.5321C75.8675 14.2274 72.3923 13.5452 69.3788 14.804ZM72.4236 18.8753C74.3451 18.8399 75.9363 20.3593 75.9894 22.2804C76.0413 23.2327 75.6925 24.1633 75.0275 24.847C74.3625 25.5307 73.4419 25.9051 72.4885 25.8797C70.5667 25.8798 69.0038 24.3313 68.986 22.4096C68.9682 20.4879 70.5022 18.9108 72.4236 18.8753Z" fill="#19191B"/>
<path fill-rule="evenodd" clip-rule="evenodd" d="M98.7554 29.1222V14.6696L94.3104 14.6665V16.2194C93.2261 14.8926 91.577 14.1585 89.8655 14.2406C85.6904 14.3723 82.374 17.7949 82.374 21.972C82.374 26.1491 85.6904 29.5718 89.8655 29.7034C91.577 29.7856 93.2261 29.0514 94.3104 27.7246V29.1161C94.3868 30.0341 94.0419 30.9372 93.373 31.5706C92.704 32.2039 91.7835 32.499 90.871 32.3726C89.4276 32.5199 88.0444 31.7556 87.4008 30.4553L83.5047 32.7077C85.029 35.1912 87.8129 36.6152 90.7188 36.3978C94.7671 36.3978 98.7554 34.236 98.7554 29.1222ZM92.1421 18.4568C93.5158 19.0763 94.3748 20.4688 94.312 21.9744C94.3404 22.9465 93.9564 23.8854 93.255 24.5591C92.5535 25.2327 91.5999 25.5784 90.6296 25.5107C89.1227 25.5125 87.7661 24.5979 87.2027 23.2003C86.6393 21.8027 86.9823 20.2029 88.0692 19.1591C89.1561 18.1154 90.7684 17.8373 92.1421 18.4568Z" fill="#19191B"/>
<path fill-rule="evenodd" clip-rule="evenodd" d="M106.299 14.804C103.285 16.0629 101.328 19.0144 101.341 22.2803C101.325 24.4217 102.171 26.4796 103.688 27.9908C105.206 29.5021 107.267 30.3397 109.408 30.3153C112.674 30.3153 115.618 28.3462 116.865 25.3277C118.111 22.3092 117.415 18.8368 115.101 16.5321C112.787 14.2274 109.312 13.5452 106.299 14.804ZM109.344 18.8753C111.265 18.8399 112.856 20.3593 112.909 22.2804C112.961 23.2327 112.612 24.1633 111.947 24.847C111.282 25.5307 110.362 25.9051 109.408 25.8797C107.487 25.8798 105.924 24.3313 105.906 22.4096C105.888 20.4879 107.422 18.9108 109.344 18.8753Z" fill="#19191B"/>
<path fill-rule="evenodd" clip-rule="evenodd" d="M121.297 8.05923C120.273 8.4833 119.605 9.48235 119.605 10.5905C119.62 12.0974 120.838 13.3154 122.345 13.3304C123.453 13.3304 124.453 12.6628 124.877 11.639C125.301 10.6152 125.066 9.43675 124.283 8.65315C123.499 7.86956 122.321 7.63515 121.297 8.05923ZM124.635 14.6695H120.067L120.061 29.891H124.635V14.6695Z" fill="#19191B"/>
<path fill-rule="evenodd" clip-rule="evenodd" d="M142.385 27.8107C143.75 26.3025 144.458 24.3121 144.352 22.2803C144.459 20.2481 143.752 18.2571 142.386 16.7485C141.02 15.2398 139.109 14.3383 137.076 14.2437C135.363 14.1502 133.698 14.8316 132.542 16.0995V14.6696H127.976V35.978H132.542V28.458C133.698 29.7269 135.362 30.4089 137.076 30.3154C139.109 30.2203 141.019 29.3189 142.385 27.8107ZM136.103 18.7491C138.092 18.7158 139.735 20.292 139.785 22.2803C139.854 23.2683 139.498 24.2388 138.807 24.948C138.115 25.6571 137.154 26.0374 136.164 25.9934C134.176 25.9936 132.559 24.3902 132.542 22.4015C132.525 20.4127 134.115 18.7824 136.103 18.7491Z" fill="#19191B"/>
<path d="M158.443 25.3231C158.443 28.824 155.4 30.3154 152.113 30.3154C149.396 30.5616 146.802 29.1264 145.568 26.693L149.524 24.4405C149.854 25.5734 150.93 26.3218 152.107 26.2364C153.202 26.2364 153.751 25.9012 153.751 25.2939C153.751 23.618 146.261 24.502 146.261 19.2361C146.261 15.9166 149.063 14.2437 152.228 14.2437C154.652 14.167 156.926 15.4146 158.163 17.5002L154.267 19.6004C153.918 18.7854 153.115 18.2581 152.228 18.2613C151.437 18.2613 150.949 18.5688 150.949 19.113C150.955 20.8489 158.443 19.6912 158.443 25.3231Z" fill="#19191B"/>
<path d="M175.124 14.6696V29.891H170.557V28.4596C169.489 29.7408 167.87 30.4316 166.206 30.3169C163.131 30.3169 160.517 28.1259 160.517 24.0131V14.6696H165.084V23.3442C165.006 24.078 165.256 24.8086 165.766 25.3417C166.276 25.8749 166.995 26.1565 167.731 26.1118C169.405 26.1118 170.562 25.1385 170.562 22.9768V14.6742L175.124 14.6696Z" fill="#19191B"/>
<path d="M201.308 20.5445V29.8895H196.741V20.9396C196.741 19.4175 196.011 18.4442 194.55 18.4442C193.028 18.4442 192.175 19.5097 192.175 21.3055V29.8895H187.61V20.9396C187.61 19.4175 186.88 18.4442 185.417 18.4442C183.895 18.4442 183.043 19.5097 183.043 21.3055V29.8895H178.477V14.6681H183.043V16.0672C184.005 14.806 185.541 14.1188 187.123 14.2422C188.712 14.1644 190.226 14.9268 191.109 16.2502C192.138 14.8667 193.805 14.1084 195.524 14.2422C199.018 14.2437 201.308 16.7391 201.308 20.5445Z" fill="#19191B"/>
<path d="M205.17 14.5758C207.041 14.5758 208.559 13.0586 208.559 11.1871C208.559 9.31557 207.041 7.7984 205.17 7.7984C203.298 7.7984 201.781 9.31557 201.781 11.1871C201.781 13.0586 203.298 14.5758 205.17 14.5758Z" fill="#19191B"/>
</svg>
