<svg width="41" height="41" viewBox="0 0 41 41" fill="none" xmlns="http://www.w3.org/2000/svg">
<path d="M31.2873 17.9937C30.1076 19.1806 29.5181 20.8314 29.6791 22.497L29.6514 22.4694C29.8168 24.4295 29.1098 26.3629 27.7188 27.7539C26.3279 29.1449 24.3944 29.8519 22.4343 29.6865L22.4619 29.7142C20.0886 29.4933 17.8316 30.7842 16.8188 32.9419C15.806 35.0995 16.2548 37.6606 17.941 39.3453C19.6272 41.03 22.1887 41.4765 24.3454 40.4617C26.5022 39.4469 27.7911 37.1887 27.568 34.8156L27.5973 34.8433C27.4318 32.8832 28.1388 30.9497 29.5298 29.5588C30.9208 28.1678 32.8542 27.4607 34.8144 27.6262L34.7852 27.5985C37.3935 27.8331 39.8206 26.2427 40.6467 23.7575C41.4729 21.2724 40.4811 18.5454 38.2515 17.1717C36.0219 15.7979 33.1401 16.1383 31.2919 17.9937H31.2873Z" fill="#5454D4"/>
<path d="M19.9453 26.0887L19.9161 26.061C21.5828 26.2289 23.2369 25.6396 24.4218 24.4555C25.6068 23.2714 26.1974 21.6178 26.0308 19.9509L26.06 19.9786C25.8945 18.0184 26.6016 16.085 27.9925 14.694C29.3835 13.3031 31.3169 12.596 33.2771 12.7615L33.2479 12.7338C35.6214 12.9567 37.8798 11.6672 38.8941 9.50979C39.9085 7.35242 39.461 4.7906 37.7753 3.1049C36.0896 1.41919 33.5278 0.971676 31.3704 1.98605C29.213 3.00043 27.9235 5.2588 28.1464 7.63231L28.1187 7.6031C28.2847 9.5634 27.5779 11.4971 26.1868 12.8882C24.7957 14.2794 22.8619 14.9862 20.9016 14.8202L20.9293 14.8494C19.2625 14.6815 17.6085 15.2709 16.4235 16.4549C15.2385 17.639 14.6479 19.2927 14.8146 20.9595L14.7869 20.9318C14.9518 22.8919 14.2446 24.825 12.8537 26.2158C11.4629 27.6066 9.52981 28.3139 7.56979 28.149L7.59746 28.1766C5.22395 27.9537 2.96558 29.2433 1.9512 31.4006C0.936825 33.558 1.38434 36.1198 3.07004 37.8055C4.75575 39.4912 7.31756 39.9387 9.47494 38.9244C11.6323 37.91 12.9218 35.6516 12.6989 33.2781L12.7282 33.3058C12.5627 31.3456 13.2697 29.4122 14.6607 28.0212C16.0517 26.6303 17.9851 25.9232 19.9453 26.0887Z" fill="#FF7143"/>
<path d="M9.64065 23.0029C10.8205 21.8162 11.4096 20.1651 11.2474 18.4995L11.2766 18.5272C11.111 16.5665 11.8184 14.6325 13.2101 13.2414C14.6018 11.8503 16.5361 11.1437 18.4968 11.3101L18.4675 11.2824C20.8402 11.5047 23.0975 10.2153 24.1113 8.05859C25.125 5.90191 24.6775 3.3411 22.9925 1.65602C21.3074 -0.0290645 18.7466 -0.476549 16.5899 0.537209C14.4332 1.55097 13.1438 3.80826 13.3661 6.18094L13.3384 6.15326C13.5038 8.11342 12.7968 10.0468 11.4058 11.4378C10.0149 12.8288 8.08143 13.5358 6.12127 13.3704L6.14895 13.398C3.54071 13.1641 1.11414 14.755 0.288473 17.2401C-0.537198 19.7252 0.454911 22.4519 2.68454 23.8253C4.91418 25.1988 7.79567 24.8583 9.64373 23.0029H9.64065Z" fill="#5454D4"/>
</svg>
