<svg width="18" height="18" viewBox="0 0 18 18" fill="none" xmlns="http://www.w3.org/2000/svg">
<path d="M12.8834 0.666748C15.7167 0.666748 17.3334 2.26675 17.3334 5.10841V12.8917C17.3334 15.7167 15.7251 17.3334 12.8917 17.3334H5.10842C2.26675 17.3334 0.666748 15.7167 0.666748 12.8917V5.10841C0.666748 2.26675 2.26675 0.666748 5.10842 0.666748H12.8834ZM8.99175 5.25841C8.60841 5.25841 8.30008 5.56675 8.30008 5.95008V8.30008H5.94175C5.75841 8.30008 5.58342 8.37508 5.45008 8.50008C5.32508 8.63341 5.25008 8.80758 5.25008 8.99175C5.25008 9.37508 5.55841 9.68342 5.94175 9.69175H8.30008V12.0501C8.30008 12.4334 8.60841 12.7417 8.99175 12.7417C9.37508 12.7417 9.68341 12.4334 9.68341 12.0501V9.69175H12.0501C12.4334 9.68342 12.7417 9.37508 12.7417 8.99175C12.7417 8.60842 12.4334 8.30008 12.0501 8.30008H9.68341V5.95008C9.68341 5.56675 9.37508 5.25841 8.99175 5.25841Z" fill="#9EAEC5"/>
</svg>
