<svg width="20" height="20" viewBox="0 0 20 20" fill="none" xmlns="http://www.w3.org/2000/svg">
<path d="M7.04988 4.28754e-05C7.98088 -0.00978646 8.84988 0.420214 9.41988 1.15021L10.2999 2.32021C10.5799 2.67021 10.9999 2.88021 11.4499 2.88021H14.5199C18.2099 2.88021 20.0099 4.85021 19.9999 8.89021V13.7602C19.9999 17.6202 17.6199 20.0002 13.7499 20.0002H6.23988C2.38988 20.0002 -0.00012207 17.6202 -0.00012207 13.7502V6.24021C-0.00012207 2.10021 1.83988 4.28754e-05 5.46988 4.28754e-05H7.04988ZM14.6299 11.7902H5.36988C4.94988 11.7902 4.61988 12.1202 4.61988 12.5402C4.61988 12.9502 4.94988 13.2902 5.36988 13.2902H14.6299C15.0399 13.2902 15.3699 12.9502 15.3699 12.5402C15.3699 12.1202 15.0399 11.7902 14.6299 11.7902Z" fill="#D5D5D5"/>
</svg>
