<svg width="22" height="24" viewBox="0 0 22 24" fill="none" xmlns="http://www.w3.org/2000/svg">
<path d="M21.0572 6.17956C21.0448 5.5316 21.0331 4.91947 21.0331 4.32728C21.0331 3.86335 20.6571 3.48722 20.193 3.48722C16.6004 3.48722 13.865 2.45473 11.585 0.237863C11.2588 -0.0793438 10.7398 -0.0792318 10.4137 0.237863C8.13388 2.45473 5.39898 3.48722 1.80654 3.48722C1.3426 3.48722 0.966479 3.86335 0.966479 4.32728C0.966479 4.91958 0.95483 5.53193 0.942397 6.18001C0.827253 12.2101 0.669546 20.4686 10.7242 23.9537C10.8133 23.9846 10.9063 24.0001 10.9993 24.0001C11.0922 24.0001 11.1853 23.9846 11.2744 23.9537C21.3298 20.4685 21.1723 12.2098 21.0572 6.17956ZM10.9994 22.2685C2.37621 19.136 2.50659 12.2738 2.6223 6.21205C2.62924 5.84824 2.63596 5.49564 2.64067 5.14998C6.00539 5.00796 8.69605 3.98835 10.9994 1.98183C13.303 3.98835 15.9941 5.00807 19.359 5.14998C19.3637 5.49553 19.3704 5.84791 19.3774 6.21149C19.493 12.2735 19.6232 19.1359 10.9994 22.2685Z" fill="black"/>
<path d="M13.8921 9.08181L9.83754 13.1362L8.10735 11.406C7.77928 11.078 7.24735 11.078 6.91939 11.406C6.59132 11.7342 6.59132 12.266 6.91939 12.5941L9.24356 14.9182C9.40754 15.0822 9.6226 15.1642 9.83754 15.1642C10.0525 15.1642 10.2675 15.0822 10.4315 14.9182L15.08 10.2699C15.4082 9.94181 15.4082 9.40989 15.0801 9.08193C14.7521 8.75385 14.2202 8.75374 13.8921 9.08181Z" fill="black"/>
</svg>
